<?xml version="1.0" standalone="no"?>
<!DOCTYPE svg PUBLIC "-//W3C//DTD SVG 20010904//EN"
 "http://www.w3.org/TR/2001/REC-SVG-20010904/DTD/svg10.dtd">
<svg version="1.0" xmlns="http://www.w3.org/2000/svg"
 width="2048.000000pt" height="2048.000000pt" viewBox="0 0 2048.000000 2048.000000"
 preserveAspectRatio="xMidYMid meet">
<metadata>
Created by potrace 1.14, written by Peter Selinger 2001-2017
</metadata>
<g transform="translate(0.000000,2048.000000) scale(0.100000,-0.100000)"
fill="#000000" stroke="none">
<path d="M9955 18433 c-153 -13 -330 -37 -403 -54 -48 -12 -123 -27 -167 -34
-123 -20 -276 -52 -320 -68 -22 -8 -58 -17 -80 -21 -36 -7 -102 -31 -190 -71
-16 -7 -65 -24 -107 -38 -42 -14 -100 -37 -130 -50 -29 -13 -71 -30 -93 -37
-22 -7 -49 -19 -60 -26 -11 -7 -39 -20 -61 -28 -55 -19 -135 -55 -271 -121
-61 -30 -114 -55 -119 -55 -4 0 -22 -11 -40 -25 -18 -14 -38 -25 -44 -25 -7 0
-43 -20 -80 -45 -37 -25 -71 -45 -74 -45 -12 0 -141 -84 -187 -122 -25 -20
-72 -55 -105 -77 -168 -113 -420 -354 -652 -624 -199 -232 -296 -356 -321
-414 -5 -11 -14 -24 -20 -27 -9 -6 -67 -102 -100 -165 -7 -14 -31 -44 -52 -66
-21 -22 -67 -94 -104 -160 -36 -66 -73 -131 -81 -145 -13 -21 -41 -81 -73
-155 -5 -11 -30 -63 -55 -116 -48 -99 -156 -404 -156 -438 0 -11 -8 -44 -19
-73 -10 -29 -23 -71 -29 -93 -6 -22 -20 -74 -31 -117 -12 -42 -21 -83 -21 -92
0 -8 -7 -37 -16 -62 -9 -26 -20 -75 -26 -108 -46 -293 -46 -296 -73 -756 -18
-315 -16 -469 11 -865 20 -306 31 -419 48 -527 39 -235 46 -291 46 -377 0 -60
-5 -102 -14 -120 -8 -15 -75 -79 -148 -142 -152 -131 -444 -409 -520 -495
-106 -122 -361 -481 -410 -579 -11 -22 -26 -47 -33 -55 -7 -8 -30 -49 -52 -90
-22 -41 -61 -113 -86 -160 -39 -71 -69 -138 -127 -275 -5 -11 -38 -91 -73
-177 -106 -261 -119 -276 -457 -550 -125 -101 -304 -265 -362 -331 -78 -89
-138 -171 -138 -189 0 -22 27 -85 40 -93 6 -4 33 -36 61 -73 28 -37 104 -124
170 -194 l119 -127 -87 -47 c-369 -198 -421 -234 -545 -370 -122 -136 -138
-159 -138 -204 0 -45 155 -662 204 -813 8 -23 24 -76 36 -117 12 -41 25 -86
30 -100 5 -14 27 -88 50 -165 23 -77 53 -165 65 -195 22 -51 46 -124 140 -420
50 -158 112 -313 136 -344 38 -49 86 -64 266 -86 142 -18 431 -78 472 -100 21
-10 81 -26 134 -34 182 -30 542 -152 639 -218 20 -14 69 -35 110 -48 121 -38
189 -75 433 -236 134 -88 197 -134 265 -193 36 -32 130 -113 210 -181 327
-281 576 -519 1015 -971 253 -261 492 -508 530 -549 267 -286 531 -552 598
-601 78 -58 160 -93 252 -106 49 -6 53 -2 123 124 75 138 76 142 68 338 -16
411 -71 888 -135 1175 -59 264 -88 363 -111 380 -19 15 -20 18 -7 49 l14 33
49 -58 c139 -164 670 -719 736 -769 33 -25 211 -165 257 -202 l34 -28 236 -8
c130 -4 308 -5 396 -2 100 3 173 1 195 -5 50 -15 134 -13 215 4 39 9 119 16
179 16 101 0 112 2 165 30 90 48 466 415 811 791 233 253 281 309 285 330 3
12 6 22 7 23 2 1 18 11 36 24 37 26 40 18 17 -49 -25 -69 -61 -221 -89 -369
-15 -74 -31 -157 -36 -185 -6 -27 -15 -86 -20 -130 -63 -491 -87 -760 -97
-1097 l-6 -197 65 -138 c36 -76 70 -150 76 -165 7 -16 15 -28 20 -28 4 0 73
68 152 151 79 84 156 156 172 161 16 6 28 17 28 27 0 25 113 133 131 126 11
-4 21 7 34 37 36 81 957 992 1476 1459 404 364 480 426 923 756 251 187 380
242 1081 463 33 11 220 60 415 109 447 113 664 169 693 180 44 17 43 12 102
286 15 66 44 192 65 280 22 88 51 212 65 275 14 63 36 158 49 210 13 52 41
172 61 265 77 346 127 534 211 782 30 89 54 175 54 192 0 22 -10 39 -44 68
-53 46 -304 198 -481 290 -72 37 -139 73 -148 79 -16 9 -10 18 55 81 40 39 85
81 100 92 14 12 58 74 97 139 38 66 77 125 86 132 9 8 23 27 32 43 14 28 14
30 -19 64 -34 37 -326 289 -413 358 -27 22 -84 69 -126 105 -41 36 -115 99
-163 140 -91 76 -129 127 -192 252 -76 151 -372 681 -491 878 -121 200 -201
322 -306 465 -232 317 -223 308 -605 674 -111 106 -185 185 -191 204 -16 45
-13 164 9 332 29 222 37 292 71 600 85 767 28 1633 -139 2115 -11 30 -52 151
-91 268 -119 352 -235 583 -460 912 -188 276 -334 451 -595 718 -127 130 -350
337 -417 387 -14 11 -82 63 -150 115 -124 95 -184 137 -269 185 -25 14 -65 39
-90 55 -45 29 -115 70 -245 142 -38 21 -77 42 -85 47 -34 19 -296 141 -302
141 -4 0 -31 11 -60 24 -92 42 -238 92 -481 165 -37 11 -118 30 -180 41 -124
24 -283 57 -337 70 -19 5 -89 14 -155 20 -66 6 -148 15 -181 20 -56 9 -664 11
-759 3z m4192 -9609 c-3 -3 -12 -4 -19 -1 -8 3 -5 6 6 6 11 1 17 -2 13 -5z"/>
</g>
</svg>
